<?xml version="1.0" encoding="UTF-8" standalone="no"?>
<!DOCTYPE svg PUBLIC "-//W3C//DTD SVG 1.1//EN" "http://www.w3.org/Graphics/SVG/1.1/DTD/svg11.dtd">
<svg width="100%" height="100%" viewBox="144 80 706 706" version="1.1" xmlns="http://www.w3.org/2000/svg" xml:space="preserve" style="fill-rule:evenodd;clip-rule:evenodd;stroke-linecap:round;stroke-linejoin:round;">
    <g transform="matrix(26.666667,0,0,26.666667,192,128)">
        <path d="M6,8.5C6,5.208 8.708,2.5 12,2.5C15.292,2.5 17.85,4.721 17.85,8.013C17.85,10.346 16.039,13.924 14.513,15.6" style="fill:none;stroke:rgb(17,17,17);stroke-width:2px;"/>
        <g transform="matrix(0.0375,0,0,0.0375,-7.2,-4.8)">
            <path d="M592,354.667C592,310.78 555.887,274.667 512,274.667C468.113,274.667 432,310.78 432,354.667C432,471.683 487,481.317 510,582.333C526.783,656.043 493.887,700.628 432,700.628C388.113,700.628 340,665.22 340,621.333" style="fill:none;stroke:rgb(17,17,17);stroke-width:53.33px;"/>
        </g>
    </g>
</svg>
